Coordinates
version=1
nRows=14
nColumns=40
inDegrees=yes

Units are S.I. units (second, meters, Newtons, ...)
Angles are in degrees.

endheader
time	pelvis_tilt	pelvis_list	pelvis_rotation	pelvis_tx	pelvis_ty	pelvis_tz	hip_flexion_r	hip_adduction_r	hip_rotation_r	knee_angle_r	knee_angle_r_beta	ankle_angle_r	subtalar_angle_r	mtp_angle_r	hip_flexion_l	hip_adduction_l	hip_rotation_l	knee_angle_l	knee_angle_l_beta	ankle_angle_l	subtalar_angle_l	mtp_angle_l	lumbar_extension	lumbar_bending	lumbar_rotation	arm_flex_r	arm_add_r	arm_rot_r	elbow_flex_r	pro_sup_r	wrist_flex_r	wrist_dev_r	arm_flex_l	arm_add_l	arm_rot_l	elbow_flex_l	pro_sup_l	wrist_flex_l	wrist_dev_l
      0.60000000	     -3.07566313	      2.33780123	      1.65668252	     -0.51521661	      0.96341956	     -1.39806780	      4.25685851	     -0.59775098	    -17.95244113	    -14.94742646	     -0.26088181	      7.31430080	     -1.58963353	     -8.00713542	     24.19899349	      3.62287760	     13.74782925	    -36.66698640	     -0.63995964	      3.53896706	     14.60458089	     12.08752608	     -3.70349981	     -5.40552741	      7.47217796	      8.27055049	    -11.54643256	    -15.24016060	     21.92774856	     89.95437384	      0.00000000	      0.00000000	    -12.37481876	      9.48694792	     11.17575853	     11.90374640	     89.95437384	      0.00000000	      0.00000000
      0.61000000	     -2.89327839	      2.44205224	      1.36366917	     -0.50675818	      0.96317928	     -1.39782757	      3.32113798	     -0.63225405	    -17.80877654	    -14.59657400	     -0.25475828	      7.53831651	     -1.52755269	     -8.39759305	     24.10978695	      3.43848796	     14.05472011	    -33.75137026	     -0.58907254	      2.93977612	     13.94674638	     12.08079076	     -3.85836910	     -5.56948890	      7.83158673	      8.72225606	    -11.72812927	    -15.04076686	     22.55433765	     89.95437384	      0.00000000	      0.00000000	    -12.74243263	      9.50024718	     12.05473964	     11.74510818	     89.95437384	      0.00000000	      0.00000000
      0.62000000	     -2.63284701	      2.47777080	      1.11837290	     -0.49806304	      0.96285044	     -1.39759492	      2.26030257	     -0.61796979	    -17.88900421	    -14.20230413	     -0.24787697	      7.82361842	     -1.23983530	     -8.87061797	     23.93241906	      3.34991254	     14.41959388	    -30.92411523	     -0.53972763	      2.52897738	     13.24209274	     12.03706869	     -4.09465289	     -5.66156473	      8.09049087	      9.12557200	    -11.90449201	    -14.75719808	     23.27387746	     89.95437384	      0.00000000	      0.00000000	    -13.05467056	      9.47327266	     13.48876693	     11.48373179	     89.95437384	      0.00000000	      0.00000000
      0.63000000	     -2.34067358	      2.44208934	      0.95455327	     -0.48925608	      0.96244534	     -1.39764467	      1.15177926	     -0.56255012	    -18.15809200	    -13.81316225	     -0.24108516	      8.06092605	     -0.78015226	     -9.49283310	     23.72031328	      3.29142793	     14.65284544	    -28.21076215	     -0.49237068	      2.13458514	     12.62790010	     11.84098557	     -4.35865395	     -5.66197268	      8.23386143	      9.61165915	    -12.17169453	    -13.91057638	     23.78764305	     89.95437384	      0.00000000	      0.00000000	    -13.39379975	      9.41867057	     15.12886820	     11.29969106	     89.95437384	      0.00000000	      0.00000000
      0.64000000	     -2.55032135	      2.05778326	      0.92577642	     -0.48091997	      0.96090626	     -1.39772136	      0.75712185	     -0.11505921	    -18.43240640	    -13.69983224	     -0.23910718	      8.39862673	     -0.78741955	     -9.58244899	     24.44434559	      3.68318064	     15.10526414	    -26.26873719	     -0.45847595	      2.21884372	     12.39261828	     11.85323331	     -4.05354539	     -5.26179240	      8.37513141	     10.02354288	    -12.34986931	    -13.80658999	     24.24648697	     89.95437384	      0.00000000	      0.00000000	    -13.77576122	      9.48490637	     15.33987421	     11.11307336	     89.95437384	      0.00000000	      0.00000000
      0.65000000	     -2.35919911	      2.09981861	      0.62956383	     -0.47237019	      0.96023439	     -1.39774331	     -0.13404952	     -0.12830306	    -18.07702508	    -13.47492963	     -0.23518189	      8.74178116	     -0.52116552	     -9.80362616	     24.15729360	      3.58792827	     15.39419303	    -23.37632886	     -0.40799391	      1.29904564	     10.94384756	     11.97048994	     -4.23732913	     -5.36318785	      8.71035455	     10.27343225	    -12.52242063	    -13.55982182	     25.20989530	     89.95437384	      0.00000000	      0.00000000	    -14.05187052	      9.49409639	     16.42928592	     11.07669897	     89.95437384	      0.00000000	      0.00000000
      0.66000000	     -1.50797317	      2.24768128	      0.32271043	     -0.46302425	      0.96039219	     -1.39789302	     -1.88653720	     -0.34466246	    -18.52419659	    -13.07696239	     -0.22823605	      8.93635076	      0.35377230	    -10.67106244	     23.17493469	      3.53501531	     16.59852972	    -20.88817526	     -0.36456743	      0.79007677	      9.30363644	     11.70451959	     -5.15369857	     -5.57668082	      8.74064833	     10.77789065	    -12.66680504	    -12.64305706	     25.90010776	     89.95437384	      0.00000000	      0.00000000	    -14.12727172	      9.35165778	     19.35422217	     10.64283594	     89.95437384	      0.00000000	      0.00000000
      0.67000000	     -1.36219723	      2.28001862	      0.07720006	     -0.45428592	      0.95931463	     -1.39822074	     -2.60421622	     -0.47179528	    -18.66797422	    -13.16569717	     -0.22978476	      9.35737500	      0.70505649	    -11.22126397	     23.13927972	      3.55585526	     17.40517000	    -18.77471006	     -0.32768051	      0.25936060	      7.71787304	     11.49725117	     -5.26788588	     -5.63599806	      9.00407336	     11.09389203	    -12.87577393	    -12.13009391	     26.53188476	     89.95437384	      0.00000000	      0.00000000	    -14.27838137	      9.39164004	     20.31328265	     10.37699315	     89.95437384	      0.00000000	      0.00000000
      0.68000000	     -1.17290976	      2.33767808	     -0.17990256	     -0.44537680	      0.95825031	     -1.39867745	     -3.43895747	     -0.63087271	    -18.89109533	    -13.11710441	     -0.22893666	      9.78522814	      1.09122339	    -11.69293788	     23.04124207	      3.49767019	     18.17598819	    -16.76821952	     -0.29266064	     -0.37757894	      6.17349614	     11.33772307	     -5.41032017	     -5.72046738	      9.22653542	     11.44398967	    -12.99578347	    -11.83902567	     27.08582558	     89.95437384	      0.00000000	      0.00000000	    -14.43922299	      9.42013772	     21.19214407	     10.16085703	     89.95437384	      0.00000000	      0.00000000
      0.69000000	     -1.30792869	      2.13194048	     -0.34180320	     -0.43668613	      0.95656169	     -1.39902580	     -3.84517313	     -0.46158977	    -18.89602752	    -13.19597219	     -0.23031316	     10.06349019	      1.26758616	    -11.83707657	     23.41376442	      3.66027273	     18.30170965	    -15.10097507	     -0.26356174	     -0.54093307	      5.11126802	     11.26787317	     -5.18422281	     -5.52146079	      9.36222100	     11.73219914	    -13.00817901	    -11.81756635	     27.64857803	     89.95437384	      0.00000000	      0.00000000	    -14.73530948	      9.50916716	     21.49633969	     10.11917095	     89.95437384	      0.00000000	      0.00000000
      0.70000000	     -1.25675277	      2.17395400	     -0.59613798	     -0.42777861	      0.95527783	     -1.39956862	     -4.45201687	     -0.60695625	    -18.85392632	    -13.32141879	     -0.23250262	     10.46807784	      1.48879499	    -12.07928707	     23.41299752	      3.57789431	     18.67448138	    -13.31149055	     -0.23232934	     -1.18726288	      3.47097990	     11.28358021	     -5.17705880	     -5.58780530	      9.64604474	     11.96404451	    -13.08510223	    -11.59366335	     28.15909497	     89.95437384	      0.00000000	      0.00000000	    -14.83597662	      9.62497404	     21.96341752	      9.92914877	     89.95437384	      0.00000000	      0.00000000
      0.71000000	     -0.66387440	      2.60632967	     -0.99681569	     -0.41806490	      0.95475247	     -1.40016435	     -5.70349681	     -1.32184847	    -19.22505977	    -13.45631084	     -0.23485693	     10.96174036	      2.29862372	    -12.66147590	     22.74887902	      3.25273135	     20.38258625	    -11.74145316	     -0.20492702	     -2.09660591	      1.14990447	     11.15763977	     -5.73021299	     -6.11215784	      9.85376651	     12.24650505	    -13.09219916	    -11.17494400	     28.73693321	     89.95437384	      0.00000000	      0.00000000	    -14.92121123	      9.71490706	     23.00995475	      9.73336090	     89.95437384	      0.00000000	      0.00000000
      0.72000000	     -0.60390735	      2.59717476	     -1.21093105	     -0.40853066	      0.95333800	     -1.40077422	     -6.36330364	     -1.46753738	    -19.46523241	    -13.59507023	     -0.23727874	     11.23674753	      2.75185518	    -13.03580175	     22.79819424	      3.26524727	     20.80456904	    -10.60080258	     -0.18501891	     -2.35506657	     -0.25124610	     10.99113970	     -5.64118597	     -6.13385761	     10.02749136	     12.43990749	    -13.05427390	    -11.11436886	     29.11471619	     89.95437384	      0.00000000	      0.00000000	    -15.07821040	      9.85911125	     23.38374732	      9.56637459	     89.95437384	      0.00000000	      0.00000000
      0.73000000	     -0.71609614	      2.50751004	     -1.39169370	     -0.39971649	      0.95163696	     -1.40153213	     -6.75922781	     -1.49337042	    -19.57289699	    -13.72574526	     -0.23955945	     11.36098863	      2.71587047	    -13.01967493	     23.30849786	      3.38180508	     20.98223062	    -10.12865499	     -0.17677838	     -2.21576923	     -0.40210329	     10.88498922	     -5.46702377	     -6.03906851	     10.04664517	     12.75883630	    -12.91032608	    -11.09732301	     29.45127070	     89.95437384	      0.00000000	      0.00000000	    -15.25594539	      9.92948394	     23.39731296	      9.52556766	     89.95437384	      0.00000000	      0.00000000
